<?xml version="1.0" encoding="UTF-8" standalone="no"?><svg xmlns="http://www.w3.org/2000/svg" xmlns:xlink="http://www.w3.org/1999/xlink" contentStyleType="text/css" height="240px" preserveAspectRatio="none" style="width:502px;height:240px;background:#FFFFFF;" version="1.1" viewBox="0 0 502 240" width="502px" zoomAndPan="magnify"><defs/><g><rect fill="none" height="26.4883" id="_title" style="stroke:none;stroke-width:1.0;" width="151" x="177.25" y="10"/><text fill="#000000" font-family="sans-serif" font-size="14" font-weight="bold" lengthAdjust="spacing" textLength="141" x="182.25" y="28.5352">Credential Issuance</text><rect fill="none" height="125.2422" style="stroke:#000000;stroke-width:1.5;" width="487.5" x="9" y="90.9766"/><line style="stroke:#181818;stroke-width:0.5;stroke-dasharray:5.0,5.0;" x1="141" x2="141" y1="73.9766" y2="158.9082"/><line style="stroke:#A80036;stroke-width:1.0;stroke-dasharray:1.0,4.0;" x1="141" x2="141" y1="158.9082" y2="186.9082"/><line style="stroke:#181818;stroke-width:0.5;stroke-dasharray:5.0,5.0;" x1="141" x2="141" y1="186.9082" y2="233.2188"/><line style="stroke:#181818;stroke-width:0.5;stroke-dasharray:5.0,5.0;" x1="418.5" x2="418.5" y1="73.9766" y2="158.9082"/><line style="stroke:#A80036;stroke-width:1.0;stroke-dasharray:1.0,4.0;" x1="418.5" x2="418.5" y1="158.9082" y2="186.9082"/><line style="stroke:#181818;stroke-width:0.5;stroke-dasharray:5.0,5.0;" x1="418.5" x2="418.5" y1="186.9082" y2="233.2188"/><rect fill="#E2E2F0" height="30.4883" rx="2.5" ry="2.5" style="stroke:#181818;stroke-width:0.5;" width="130" x="76" y="42.4883"/><text fill="#000000" font-family="sans-serif" font-size="14" lengthAdjust="spacing" textLength="116" x="83" y="63.0234">Credential Issuer</text><rect fill="#E2E2F0" height="30.4883" rx="2.5" ry="2.5" style="stroke:#181818;stroke-width:0.5;" width="135" x="351.5" y="42.4883"/><text fill="#000000" font-family="sans-serif" font-size="14" lengthAdjust="spacing" textLength="121" x="358.5" y="63.0234">Credential Holder</text><path d="M9,90.9766 L163,90.9766 L163,98.2871 L153,108.2871 L9,108.2871 L9,90.9766 " fill="#EEEEEE" style="stroke:#000000;stroke-width:1.5;"/><rect fill="none" height="125.2422" style="stroke:#000000;stroke-width:1.5;" width="487.5" x="9" y="90.9766"/><text fill="#000000" font-family="sans-serif" font-size="13" font-weight="bold" lengthAdjust="spacing" textLength="109" x="24" y="104.5449">Issue Credential</text><path d="M19,113.2871 L19,153.2871 L262,153.2871 L262,123.2871 L252,113.2871 L19,113.2871 " fill="#FEFFDD" style="stroke:#181818;stroke-width:0.5;"/><path d="M252,113.2871 L252,123.2871 L262,123.2871 L252,113.2871 " fill="#FEFFDD" style="stroke:#181818;stroke-width:0.5;"/><text fill="#000000" font-family="sans-serif" font-size="13" lengthAdjust="spacing" textLength="177" x="25" y="130.8555">Credential Issuer constructs</text><text fill="#000000" font-family="sans-serif" font-size="13" lengthAdjust="spacing" textLength="222" x="25" y="146.166">vaccine certificate from health data</text><polygon fill="#181818" points="407,204.2188,417,208.2188,407,212.2188,411,208.2188" style="stroke:#181818;stroke-width:1.0;"/><line style="stroke:#181818;stroke-width:1.0;" x1="141" x2="413" y1="208.2188" y2="208.2188"/><text fill="#000000" font-family="sans-serif" font-size="13" lengthAdjust="spacing" textLength="254" x="148" y="203.4766">Provides vaccine certificate to individual</text><!--MD5=[ac211cb6e55a1d49d53fffe8ec59a9a4]
@startuml

title Credential Issuance
hide footbox
participant "Credential Issuer" as CI
participant "Credential Holder" as Holder

group Issue Credential
    note over CI
    Credential Issuer constructs
    vaccine certificate from health data
    end note
    ...
    "CI" -> "Holder" : Provides vaccine certificate to individual
end
@enduml

PlantUML version 1.2022.7(Mon Aug 22 13:01:30 EDT 2022)
(GPL source distribution)
Java Runtime: OpenJDK Runtime Environment
JVM: OpenJDK 64-Bit Server VM
Default Encoding: UTF-8
Language: en
Country: US
--></g></svg>